<?xml version="1.0" encoding="UTF-8"?>
<svg id="Laag_1" data-name="Laag 1" xmlns="http://www.w3.org/2000/svg" version="1.1" viewBox="0 0 500 500">
  <defs>
    <style>
      .cls-1 {
        fill: #3a05eb;
      }

      .cls-1, .cls-2 {
        stroke-width: 0px;
      }

      .cls-2 {
        fill: #cfc5ff;
      }
    </style>
  </defs>
  <circle class="cls-1" cx="250" cy="243" r="239.2"/>
  <g id="u3R7BH.tif">
    <g>
      <path class="cls-2" d="M150.2,233.5c0,.8,0,1.5,0,2.2,0,32.2,0,64.5,0,96.7,0,1.9-.3,3-2.1,4.2-6,3.7-11.8,7.7-17.7,11.7-2.8,1.9-5.6,3.7-8.1,5.9-7.9,6.9-7.2,19.6,1.3,25.7,3.4,2.4,7.2,3.1,11.3,3.1,76.6,0,153.3,0,229.9,0,1.1,0,2.3,0,3.4-.1,7.6-.9,12.6-5.6,14.3-12.6,1.8-7.4-.9-13.5-7-17.8-8-5.7-16.3-11-24.5-16.3-1.1-.7-1.4-1.4-1.4-2.7,0-32.6,0-65.3,0-97.9,0-.7,0-1.4,0-2.1h-33.2v99.6h-20.8v-99.6h-33.2v99.6h-25.1v-99.6h-33.2v99.6h-21v-99.6h-33.1ZM249.9,216.7c38.2,0,76.5,0,114.7,0,.6,0,1.3,0,1.9,0,8.9-.5,14.1-5.2,16-12.8,1.9-7.8-1.3-14.5-8.2-18.5-9.5-5.5-19-11-28.5-16.4-28.9-16.5-57.8-32.9-86.7-49.3-2.3-1.3-5-2-7.6-2.5-4.3-.7-8.1.9-11.8,3-30.3,17.4-60.5,34.7-90.8,52.1-7.6,4.4-15.4,8.5-22.9,13-5.8,3.4-9.4,8.2-9,15.3.3,5.3,2.3,9.8,6.7,13.1,3.3,2.5,7.1,3.2,11.1,3.2,38.4,0,76.8,0,115.2,0Z"/>
      <path class="cls-2" d="M150.2,233.5h33.1v99.6h21v-99.6h33.2v99.6h25.1v-99.6h33.2v99.6h20.8v-99.6h33.2c0,.7,0,1.4,0,2.1,0,32.6,0,65.3,0,97.9,0,1.2.3,1.9,1.4,2.7,8.2,5.4,16.5,10.7,24.5,16.3,6.1,4.3,8.8,10.5,7,17.8-1.7,7-6.7,11.6-14.3,12.6-1.1.1-2.3.1-3.4.1-76.6,0-153.3,0-229.9,0-4.1,0-7.9-.7-11.3-3.1-8.5-6.1-9.2-18.8-1.3-25.7,2.5-2.2,5.3-4,8.1-5.9,5.8-4,11.7-8,17.7-11.7,1.8-1.1,2.1-2.3,2.1-4.2,0-32.2,0-64.5,0-96.7,0-.7,0-1.4,0-2.2Z"/>
      <path class="cls-2" d="M249.9,216.7c-38.4,0-76.8,0-115.2,0-4,0-7.8-.7-11.1-3.2-4.4-3.3-6.4-7.8-6.7-13.1-.4-7.1,3.3-11.9,9-15.3,7.6-4.4,15.3-8.6,22.9-13,30.3-17.3,60.5-34.7,90.8-52.1,3.7-2.1,7.6-3.7,11.8-3,2.6.4,5.3,1.2,7.6,2.5,28.9,16.4,57.8,32.8,86.7,49.3,9.5,5.4,19,10.9,28.5,16.4,6.9,4,10.1,10.7,8.2,18.5-1.9,7.7-7.1,12.3-16,12.8-.6,0-1.3,0-1.9,0-38.2,0-76.5,0-114.7,0Z"/>
    </g>
  </g>
</svg>